<svg xmlns="http://www.w3.org/2000/svg" width="103" height="84" fill="none" viewBox="0 0 103 84"><path fill="#019493" d="M101.947 31.47L84.7536 1.9482C84.0485 0.741033 82.7516 0 81.3413 0H22.3156C20.9471 0 19.6742 0.705177 18.9571 1.85258L0.580637 31.4401C-0.375535 32.9819 -0.130516 34.966 1.16629 36.2389L48.437 82.3802C49.9669 83.8801 52.435 83.8801 53.9709 82.3802L101.301 36.1791C102.574 34.9361 102.837 33.0058 101.947 31.476V31.47ZM77.6421 39.6632C77.5764 42.6871 68.7138 45.203 56.9051 45.8185V59.9161H45.7418V45.8185C33.9331 45.203 25.0766 42.6871 25.0108 39.6632V33.3644C25.0766 30.3405 33.9331 27.8186 45.7418 27.2031V21.4601H28.9311V13.1772H73.7218V21.4601H56.9111V27.2031C68.7198 27.8186 77.5823 30.3405 77.6481 33.3644V39.6632H77.6421Z"/><path fill="#019493" d="M56.9051 37.6911C55.1063 37.7867 53.2358 37.8285 51.3235 37.8285C49.4111 37.8285 47.5406 37.7807 45.7418 37.6911V31.6732C35.708 32.1931 27.7957 34.0935 25.6144 36.5078C28.1901 39.3524 38.7259 41.4859 51.3295 41.4859C63.933 41.4859 74.4628 39.3524 77.0385 36.5078C74.8513 34.0935 66.9509 32.1931 56.9111 31.6732V37.6911H56.9051Z"/></svg>