<?xml version="1.0" encoding="utf-8"?>
<svg id="master-artboard" viewBox="0 0 1400 500" version="1.1" xmlns="http://www.w3.org/2000/svg" x="0px" y="0px" style="enable-background:new 0 0 336 235.2;" width="1400px" height="500px">


<g transform="matrix(4.177751541137695, 0, 0, 4.177751541137695, -79.38990271091461, -195.25506591796875)">
	<path class="st1" d="M238.5,136.2c0,1.2-1,2.2-2.2,2.2h-131c-1.2,0-2.2-1-2.2-2.2V61.8c0-1.2,1-2.2,2.2-2.2h131&#10;&#9;&#9;c1.2,0,2.2,1,2.2,2.2V136.2z" style="opacity: 0.15; fill: rgb(18, 16, 11);"/>
	<path class="st2" d="M235.7,133.4c0,1.2-1,2.2-2.2,2.2h-131c-1.2,0-2.2-1-2.2-2.2V59c0-1.2,1-2.2,2.2-2.2h131c1.2,0,2.2,1,2.2,2.2&#10;&#9;&#9;V133.4z" style="fill: rgb(242, 242, 243);"/>
	<path d="M 110.400002 63.799999 H 225.599998 V 111.299999 H 110.400002 V 63.799999 Z" class="st3" style="fill: rgb(216, 218, 216);"/>
	<path d="M 150.100006 114.400002 H 185.900005 V 132.800001 H 150.100006 V 114.400002 Z" class="st3" style="fill: rgb(216, 218, 216);"/>
	<g>
		<path d="M 114.599998 67.400002 H 121.199998 V 74.000001 H 114.599998 V 67.400002 Z" class="st4" style="fill: rgb(114, 120, 114);"/>
		<path d="M 123.5 67.400002 H 130.1 V 74.000001 H 123.5 V 67.400002 Z" class="st4" style="fill: rgb(114, 120, 114);"/>
		<path d="M 131.800003 67.400002 H 138.400003 V 74.000001 H 131.800003 V 67.400002 Z" class="st4" style="fill: rgb(114, 120, 114);"/>
		<path d="M 148.399994 67.400002 H 154.999994 V 74.000001 H 148.399994 V 67.400002 Z" class="st4" style="fill: rgb(114, 120, 114);"/>
		<path d="M 140.100006 67.400002 H 146.700006 V 74.000001 H 140.100006 V 67.400002 Z" class="st4" style="fill: rgb(114, 120, 114);"/>
		<path d="M 156.699997 67.400002 H 163.299997 V 74.000001 H 156.699997 V 67.400002 Z" class="st4" style="fill: rgb(114, 120, 114);"/>
		<path d="M 164.899994 67.400002 H 171.499994 V 74.000001 H 164.899994 V 67.400002 Z" class="st4" style="fill: rgb(114, 120, 114);"/>
		<path d="M 173.199997 67.400002 H 179.799997 V 74.000001 H 173.199997 V 67.400002 Z" class="st4" style="fill: rgb(114, 120, 114);"/>
		<path d="M 181.5 67.400002 H 188.1 V 74.000001 H 181.5 V 67.400002 Z" class="st4" style="fill: rgb(114, 120, 114);"/>
		<path d="M 189.800003 67.400002 H 196.400003 V 74.000001 H 189.800003 V 67.400002 Z" class="st4" style="fill: rgb(114, 120, 114);"/>
		<path d="M 198.100006 67.400002 H 204.700006 V 74.000001 H 198.100006 V 67.400002 Z" class="st4" style="fill: rgb(114, 120, 114);"/>
		<path d="M 128.100006 76 H 134.700006 V 82.6 H 128.100006 V 76 Z" class="st4" style="fill: rgb(114, 120, 114);"/>
		<path d="M 114.599998 76 H 126.499998 V 82.6 H 114.599998 V 76 Z" class="st4" style="fill: rgb(114, 120, 114);"/>
		<path d="M 136.399994 76 H 142.999994 V 82.6 H 136.399994 V 76 Z" class="st4" style="fill: rgb(114, 120, 114);"/>
		<path d="M 153 76 H 159.6 V 82.6 H 153 V 76 Z" class="st4" style="fill: rgb(114, 120, 114);"/>
		<path d="M 144.699997 76 H 151.299997 V 82.6 H 144.699997 V 76 Z" class="st4" style="fill: rgb(114, 120, 114);"/>
		<path d="M 161.300003 76 H 167.900003 V 82.6 H 161.300003 V 76 Z" class="st4" style="fill: rgb(114, 120, 114);"/>
		<path d="M 169.5 76 H 176.1 V 82.6 H 169.5 V 76 Z" class="st4" style="fill: rgb(114, 120, 114);"/>
		<path d="M 177.800003 76 H 184.400003 V 82.6 H 177.800003 V 76 Z" class="st4" style="fill: rgb(114, 120, 114);"/>
		<path d="M 186.100006 76 H 192.700006 V 82.6 H 186.100006 V 76 Z" class="st4" style="fill: rgb(114, 120, 114);"/>
		<path d="M 194.399994 76 H 200.999994 V 82.6 H 194.399994 V 76 Z" class="st4" style="fill: rgb(114, 120, 114);"/>
		<path d="M 131.699997 84.300003 H 138.299997 V 90.900003 H 131.699997 V 84.300003 Z" class="st4" style="fill: rgb(114, 120, 114);"/>
		<path d="M 114.599998 84.300003 H 129.599998 V 90.900003 H 114.599998 V 84.300003 Z" class="st4" style="fill: rgb(114, 120, 114);"/>
		<path d="M 140 84.300003 H 146.6 V 90.900003 H 140 V 84.300003 Z" class="st4" style="fill: rgb(114, 120, 114);"/>
		<path d="M 156.600006 84.300003 H 163.200006 V 90.900003 H 156.600006 V 84.300003 Z" class="st4" style="fill: rgb(114, 120, 114);"/>
		<path d="M 148.300003 84.300003 H 154.900003 V 90.900003 H 148.300003 V 84.300003 Z" class="st4" style="fill: rgb(114, 120, 114);"/>
		<path d="M 164.899994 84.300003 H 171.499994 V 90.900003 H 164.899994 V 84.300003 Z" class="st4" style="fill: rgb(114, 120, 114);"/>
		<path d="M 173.199997 84.300003 H 179.799997 V 90.900003 H 173.199997 V 84.300003 Z" class="st4" style="fill: rgb(114, 120, 114);"/>
		<path d="M 181.5 84.300003 H 188.1 V 90.900003 H 181.5 V 84.300003 Z" class="st4" style="fill: rgb(114, 120, 114);"/>
		<path d="M 189.800003 84.300003 H 196.400003 V 90.900003 H 189.800003 V 84.300003 Z" class="st4" style="fill: rgb(114, 120, 114);"/>
		<path d="M 135.199997 92.300003 H 141.799997 V 98.900003 H 135.199997 V 92.300003 Z" class="st4" style="fill: rgb(114, 120, 114);"/>
		<path d="M 114.599998 92.300003 H 133.699999 V 98.900003 H 114.599998 V 92.300003 Z" class="st4" style="fill: rgb(114, 120, 114);"/>
		<path d="M 143.5 92.300003 H 150.1 V 98.900003 H 143.5 V 92.300003 Z" class="st4" style="fill: rgb(114, 120, 114);"/>
		<path d="M 160.100006 92.300003 H 166.700006 V 98.900003 H 160.100006 V 92.300003 Z" class="st4" style="fill: rgb(114, 120, 114);"/>
		<path d="M 151.800003 92.300003 H 158.400003 V 98.900003 H 151.800003 V 92.300003 Z" class="st4" style="fill: rgb(114, 120, 114);"/>
		<path d="M 114.599998 100.800003 H 121.199998 V 107.400003 H 114.599998 V 100.800003 Z" class="st4" style="fill: rgb(114, 120, 114);"/>
		<path d="M 123.400002 100.800003 H 130.000001 V 107.400003 H 123.400002 V 100.800003 Z" class="st4" style="fill: rgb(114, 120, 114);"/>
		<path d="M 140 100.800003 H 146.6 V 107.400003 H 140 V 100.800003 Z" class="st4" style="fill: rgb(114, 120, 114);"/>
		<path d="M 149.199997 100.800003 H 186.999996 V 107.400003 H 149.199997 V 100.800003 Z" class="st4" style="fill: rgb(114, 120, 114);"/>
		<path d="M 131.699997 100.800003 H 138.299997 V 107.400003 H 131.699997 V 100.800003 Z" class="st4" style="fill: rgb(114, 120, 114);"/>
		<path d="M 168.399994 92.300003 H 174.999994 V 98.900003 H 168.399994 V 92.300003 Z" class="st4" style="fill: rgb(114, 120, 114);"/>
		<path d="M 176.699997 92.300003 H 183.299997 V 98.900003 H 176.699997 V 92.300003 Z" class="st4" style="fill: rgb(114, 120, 114);"/>
		<path d="M 185 92.300003 H 191.6 V 98.900003 H 185 V 92.300003 Z" class="st4" style="fill: rgb(114, 120, 114);"/>
		<path d="M 193.300003 92.300003 H 199.900003 V 98.900003 H 193.300003 V 92.300003 Z" class="st4" style="fill: rgb(114, 120, 114);"/>
		<path d="M 189.100006 100.800003 H 195.700006 V 107.400003 H 189.100006 V 100.800003 Z" class="st4" style="fill: rgb(114, 120, 114);"/>
		<path d="M 197.399994 100.800003 H 203.999994 V 107.400003 H 197.399994 V 100.800003 Z" class="st4" style="fill: rgb(114, 120, 114);"/>
		<path d="M 205.699997 100.800003 H 212.299997 V 107.400003 H 205.699997 V 100.800003 Z" class="st4" style="fill: rgb(114, 120, 114);"/>
		<path d="M 214.699997 100.800003 H 221.299997 V 107.400003 H 214.699997 V 100.800003 Z" class="st4" style="fill: rgb(114, 120, 114);"/>
		<path d="M 202.100006 92.300003 H 221.400005 V 98.900003 H 202.100006 V 92.300003 Z" class="st4" style="fill: rgb(114, 120, 114);"/>
		<path d="M 198.100006 84.300003 H 204.700006 V 90.900003 H 198.100006 V 84.300003 Z" class="st4" style="fill: rgb(114, 120, 114);"/>
		<path d="M 206.199997 84.300003 H 221.399997 V 90.900003 H 206.199997 V 84.300003 Z" class="st4" style="fill: rgb(114, 120, 114);"/>
		<path d="M 202.699997 76 H 209.299997 V 82.6 H 202.699997 V 76 Z" class="st4" style="fill: rgb(114, 120, 114);"/>
		<path d="M 211.300003 76 H 221.400003 V 82.6 H 211.300003 V 76 Z" class="st4" style="fill: rgb(114, 120, 114);"/>
		<path d="M 206.399994 67.400002 H 212.999994 V 74.000001 H 206.399994 V 67.400002 Z" class="st4" style="fill: rgb(114, 120, 114);"/>
		<path d="M 214.699997 67.400002 H 221.299997 V 74.000001 H 214.699997 V 67.400002 Z" class="st4" style="fill: rgb(114, 120, 114);"/>
	</g>
	<path d="M 74.800003 9.2 H 261.100006 V 11.9 H 74.800003 V 9.2 Z" class="st3" style="fill: rgb(216, 218, 216);"/>
	<path d="M 235.1999969482422 56.900001525878906 L 100.69999694824219 56.900001525878906 L 74.80000305175781 11.899999618530273 L 261.20001220703125 11.899999618530273 Z" class="st4" style="fill: rgb(114, 120, 114);"/>
	<path d="M 228.10000610351562 54.29999923706055 L 107.9000015258789 54.29999923706055 L 89.0999984741211 18.100000381469727 L 246.89999389648438 18.100000381469727 Z" class="st2" style="fill: rgb(242, 242, 243);"/>
</g>
<g transform="matrix(4.177751541137695, 0, 0, 4.177751541137695, -0.3609806299209595, -227.92034912109375)">
	<path class="st1" d="M93.4,201.3c0.3,1.2-0.5,2.4-1.6,2.6l-29.9,6.9c-1.2,0.3-2.4-0.5-2.6-1.6l-11-48c-0.3-1.2,0.5-2.4,1.6-2.6&#10;&#9;&#9;l29.9-6.9c1.2-0.3,2.4,0.5,2.6,1.6L93.4,201.3z" style="opacity: 0.15; fill: rgb(18, 16, 11);"/>
	<path class="st2" d="M89.8,199.4c0.3,1.2-0.5,2.4-1.6,2.6l-29.9,6.9c-1.2,0.3-2.4-0.5-2.6-1.6l-11-48c-0.3-1.2,0.5-2.4,1.6-2.6&#10;&#9;&#9;l29.9-6.9c1.2-0.3,2.4,0.5,2.6,1.6L89.8,199.4z" style="fill: rgb(242, 242, 243);"/>
	
		<path d="M 52.200001 157.100006 H 80.400002 V 193.700005 H 52.200001 V 157.100006 Z" transform="matrix(0.9746 -0.2241 0.2241 0.9746 -37.6379 19.3189)" class="st4" style="fill: rgb(114, 120, 114);"/>
	<path d="M 75.500003 199.5 A 3.7 3.7 0 0 1 71.800003 203.2 A 3.7 3.7 0 0 1 68.100003 199.5 A 3.7 3.7 0 0 1 71.800003 195.8 A 3.7 3.7 0 0 1 75.500003 199.5 Z" class="st3" style="fill: rgb(216, 218, 216);"/>
</g>
<g transform="matrix(4.177751541137695, 0, 0, 4.177751541137695, -0.3609806299209595, -227.92034912109375)">
	<path d="M 141.300003 152.699997 H 197.100002 V 223.599998 H 141.300003 V 152.699997 Z" class="st1" style="opacity: 0.15; fill: rgb(18, 16, 11);"/>
	<path d="M 138.899994 150.300003 H 194.699993 V 221.200005 H 138.899994 V 150.300003 Z" class="st5" style="fill: rgb(253, 250, 224);"/>
	<g>
		<path d="M 142.800003 155.5 H 191.100002 V 156 H 142.800003 V 155.5 Z" class="st6" style="fill: rgb(221, 185, 116);"/>
		<path d="M 142.800003 160.899994 H 191.100002 V 161.399994 H 142.800003 V 160.899994 Z" class="st6" style="fill: rgb(221, 185, 116);"/>
		<path d="M 142.800003 166.399994 H 191.100002 V 166.899994 H 142.800003 V 166.399994 Z" class="st6" style="fill: rgb(221, 185, 116);"/>
		<path d="M 142.399994 171.899994 H 190.699993 V 172.399994 H 142.399994 V 171.899994 Z" class="st6" style="fill: rgb(221, 185, 116);"/>
		<path d="M 142.699997 177.300003 H 190.999996 V 177.800003 H 142.699997 V 177.300003 Z" class="st6" style="fill: rgb(221, 185, 116);"/>
		<path d="M 142.699997 182.800003 H 190.999996 V 183.300003 H 142.699997 V 182.800003 Z" class="st6" style="fill: rgb(221, 185, 116);"/>
		<path d="M 142.800003 188.199997 H 191.100002 V 188.699997 H 142.800003 V 188.199997 Z" class="st6" style="fill: rgb(221, 185, 116);"/>
		<path d="M 142.699997 193.699997 H 190.999996 V 194.199997 H 142.699997 V 193.699997 Z" class="st6" style="fill: rgb(221, 185, 116);"/>
		<path d="M 142.699997 199.100006 H 190.999996 V 199.600006 H 142.699997 V 199.100006 Z" class="st6" style="fill: rgb(221, 185, 116);"/>
		<path d="M 142.399994 204.600006 H 190.699993 V 205.100006 H 142.399994 V 204.600006 Z" class="st6" style="fill: rgb(221, 185, 116);"/>
		<path d="M 142.399994 210.100006 H 190.699993 V 210.600006 H 142.399994 V 210.100006 Z" class="st6" style="fill: rgb(221, 185, 116);"/>
		<path d="M 142.399994 215.5 H 190.699993 V 216 H 142.399994 V 215.5 Z" class="st6" style="fill: rgb(221, 185, 116);"/>
	</g>
</g>
<g transform="matrix(4.177751541137695, 0, 0, 4.177751541137695, -0.3609806299209595, -227.92034912109375)">
	<path class="st1" d="M306.4,93c-0.3,1-1.4,1.6-2.4,1.2L258.5,80c-1-0.3-1.6-1.4-1.2-2.4l18-57.5c0.3-1,1.4-1.6,2.4-1.2l45.5,14.3&#10;&#9;&#9;c1,0.3,1.6,1.4,1.2,2.4L306.4,93z" style="opacity: 0.15; fill: rgb(18, 16, 11);"/>
	<path class="st2" d="M304,90.6c-0.3,1-1.4,1.6-2.4,1.2l-45.5-14.3c-1-0.3-1.6-1.4-1.2-2.4l18-57.5c0.3-1,1.4-1.6,2.4-1.2l45.5,14.3&#10;&#9;&#9;c1,0.3,1.6,1.4,1.2,2.4L304,90.6z" style="fill: rgb(242, 242, 243);"/>
	
		<path d="M 267 26.5 H 311.099998 V 78.200001 H 267 V 26.5 Z" transform="matrix(0.9541 0.2995 -0.2995 0.9541 28.9487 -84.1513)" class="st4" style="fill: rgb(114, 120, 114);"/>
	<path d="M 282.000006 81 A 1.9 1.9 0 0 1 280.100006 82.9 A 1.9 1.9 0 0 1 278.200006 81 A 1.9 1.9 0 0 1 280.100006 79.1 A 1.9 1.9 0 0 1 282.000006 81 Z" class="st3" style="fill: rgb(216, 218, 216);"/>
</g>
<g transform="matrix(4.177751541137695, 0, 0, 4.177751541137695, -0.3609806299209595, -227.92034912109375)">
	<g class="st7" style="opacity: 0.15;">
		<path class="st8" d="M22,19.3c0.2,0.1,0.2,0.4,0.1,0.6l0,0c-0.1,0.2-0.4,0.2-0.6,0.1l-3-2.3c-0.2-0.1-0.2-0.4-0.1-0.6l0,0&#10;&#9;&#9;&#9;c0.1-0.2,0.4-0.2,0.6-0.1L22,19.3z" style="fill: rgb(18, 16, 11);"/>
		<path class="st8" d="M11.9,19.8l6.8,5.3l7.7-9.8L19.5,10L11.9,19.8z M25.2,15.3L18.4,24L13,19.7l6.8-8.7L25.2,15.3z" style="fill: rgb(18, 16, 11);"/>
		<path class="st8" d="M88.8,65.6c0,0,6.1,4,2.5,8.6c-3.4,4.4-8.9-0.4-8.9-0.4l-64-50.1l6.4-8.2L88.8,65.6z" style="fill: rgb(18, 16, 11);"/>
		
			<path d="M 51.099998 46.099998 H 61.499998 V 47.299999 H 51.099998 V 46.099998 Z" transform="matrix(0.6169 -0.787 0.787 0.6169 -15.1929 62.1726)" class="st1" style="opacity: 0.15; fill: rgb(18, 16, 11);"/>
		<path d="M 41 28.799999 H 53.8 V 50.599998 H 41 V 28.799999 Z" transform="matrix(0.617 -0.787 0.787 0.617 -13.1066 52.4726)" class="st8" style="fill: rgb(18, 16, 11);"/>
		<g>
			<path d="M 57.100001 39.700001 A 9.7 9.7 0 0 1 47.400002 49.400001 A 9.7 9.7 0 0 1 37.700002 39.700001 A 9.7 9.7 0 0 1 47.400002 30.000001 A 9.7 9.7 0 0 1 57.100001 39.700001 Z" class="st8" style="fill: rgb(18, 16, 11);"/>
			<path d="M 55.000001 39.700001 A 7.6 7.6 0 0 1 47.400002 47.300001 A 7.6 7.6 0 0 1 39.800002 39.700001 A 7.6 7.6 0 0 1 47.400002 32.100001 A 7.6 7.6 0 0 1 55.000001 39.700001 Z" class="st8" style="fill: rgb(18, 16, 11);"/>
			<path d="M 48 36.700001 H 48.6 V 40.300001 H 48 V 36.700001 Z" transform="matrix(0.787 0.617 -0.617 0.787 34.0451 -21.5887)" class="st8" style="fill: rgb(18, 16, 11);"/>
			
				<path d="M 44.900002 34.900002 H 45.500002 V 41.000001 H 44.900002 V 34.900002 Z" transform="matrix(0.6169 -0.7871 0.7871 0.6169 -12.6018 50.1382)" class="st8" style="fill: rgb(18, 16, 11);"/>
		</g>
		<g>
			<path d="M 60.700002 49.5 A 0.8 0.8 0 0 1 59.900002 50.3 A 0.8 0.8 0 0 1 59.100002 49.5 A 0.8 0.8 0 0 1 59.900002 48.7 A 0.8 0.8 0 0 1 60.700002 49.5 Z" class="st8" style="fill: rgb(18, 16, 11);"/>
			<path d="M 64.999997 52.900002 A 0.8 0.8 0 0 1 64.199997 53.700002 A 0.8 0.8 0 0 1 63.399997 52.900002 A 0.8 0.8 0 0 1 64.199997 52.100002 A 0.8 0.8 0 0 1 64.999997 52.900002 Z" class="st8" style="fill: rgb(18, 16, 11);"/>
			<path d="M 69.3 56.299999 A 0.8 0.8 0 0 1 68.5 57.099999 A 0.8 0.8 0 0 1 67.7 56.299999 A 0.8 0.8 0 0 1 68.5 55.499999 A 0.8 0.8 0 0 1 69.3 56.299999 Z" class="st8" style="fill: rgb(18, 16, 11);"/>
			<path d="M 73.700002 59.700001 A 0.8 0.8 0 0 1 72.900002 60.500001 A 0.8 0.8 0 0 1 72.100002 59.700001 A 0.8 0.8 0 0 1 72.900002 58.900001 A 0.8 0.8 0 0 1 73.700002 59.700001 Z" class="st8" style="fill: rgb(18, 16, 11);"/>
		</g>
	</g>
	<path class="st4" d="M19.6,16.9c0.2,0.1,0.2,0.4,0.1,0.6l0,0c-0.1,0.2-0.4,0.2-0.6,0.1l-3-2.3c-0.2-0.1-0.2-0.4-0.1-0.6l0,0&#10;&#9;&#9;c0.1-0.2,0.4-0.2,0.6-0.1L19.6,16.9z" style="fill: rgb(114, 120, 114);"/>
	<path class="st4" d="M9.5,17.4l6.8,5.3l7.7-9.8l-6.8-5.3L9.5,17.4z M22.8,12.9L16,21.6l-5.4-4.3l6.8-8.7L22.8,12.9z" style="fill: rgb(114, 120, 114);"/>
	<path class="st9" d="M86.4,63.2c0,0,6.1,4,2.5,8.6c-3.4,4.4-8.9-0.4-8.9-0.4L16,21.3l6.4-8.2L86.4,63.2z" style="fill: rgb(248, 177, 35);"/>
	<path d="M 48.700001 43.700001 H 59.1 V 44.900001 H 48.700001 V 43.700001 Z" transform="matrix(0.6169 -0.787 0.787 0.6169 -14.2227 59.3668)" class="st1" style="opacity: 0.15; fill: rgb(18, 16, 11);"/>
	
		<path d="M 38.599998 26.4 H 51.399999 V 48.199999 H 38.599998 V 26.4 Z" transform="matrix(0.6169 -0.787 0.787 0.6169 -12.1365 49.6675)" class="st4" style="fill: rgb(114, 120, 114);"/>
	<g>
		<path d="M 54.7 37.299999 A 9.7 9.7 0 0 1 45 46.999999 A 9.7 9.7 0 0 1 35.3 37.299999 A 9.7 9.7 0 0 1 45 27.599999 A 9.7 9.7 0 0 1 54.7 37.299999 Z" class="st4" style="fill: rgb(114, 120, 114);"/>
		<path d="M 52.6 37.299999 A 7.6 7.6 0 0 1 45 44.899999 A 7.6 7.6 0 0 1 37.4 37.299999 A 7.6 7.6 0 0 1 45 29.699999 A 7.6 7.6 0 0 1 52.6 37.299999 Z" class="st2" style="fill: rgb(242, 242, 243);"/>
		
			<path d="M 45.599998 34.299999 H 46.199998 V 37.899999 H 45.599998 V 34.299999 Z" transform="matrix(0.7869 0.6171 -0.6171 0.7869 32.0597 -20.6208)" class="st4" style="fill: rgb(114, 120, 114);"/>
		
			<path d="M 42.5 32.5 H 43.1 V 38.6 H 42.5 V 32.5 Z" transform="matrix(0.6169 -0.7871 0.7871 0.6169 -11.6323 47.3299)" class="st4" style="fill: rgb(114, 120, 114);"/>
	</g>
	<g>
		<path d="M 58.3 47.099998 A 0.8 0.8 0 0 1 57.5 47.899998 A 0.8 0.8 0 0 1 56.7 47.099998 A 0.8 0.8 0 0 1 57.5 46.299998 A 0.8 0.8 0 0 1 58.3 47.099998 Z" class="st10" style="fill: rgb(194, 128, 21);"/>
		<path d="M 62.599999 50.5 A 0.8 0.8 0 0 1 61.799999 51.3 A 0.8 0.8 0 0 1 60.999999 50.5 A 0.8 0.8 0 0 1 61.799999 49.7 A 0.8 0.8 0 0 1 62.599999 50.5 Z" class="st10" style="fill: rgb(194, 128, 21);"/>
		<path d="M 66.899998 53.900002 A 0.8 0.8 0 0 1 66.099998 54.700002 A 0.8 0.8 0 0 1 65.299998 53.900002 A 0.8 0.8 0 0 1 66.099998 53.100002 A 0.8 0.8 0 0 1 66.899998 53.900002 Z" class="st10" style="fill: rgb(194, 128, 21);"/>
		<path d="M 71.3 57.299999 A 0.8 0.8 0 0 1 70.5 58.099999 A 0.8 0.8 0 0 1 69.7 57.299999 A 0.8 0.8 0 0 1 70.5 56.499999 A 0.8 0.8 0 0 1 71.3 57.299999 Z" class="st10" style="fill: rgb(194, 128, 21);"/>
	</g>
</g>
<g transform="matrix(4.177751541137695, 0, 0, 4.177751541137695, -0.3609806299209595, -227.92034912109375)">
	<path class="st1" d="M37.7,132.1c0,0,8.9,7.3,13.1,7.3c4.2,0,16.7-4.4,17.2-6c0.5-1.6-2.6-13.8-4.1-15.4c-1.4-1.6,2.3-4.9,2.5-6&#10;&#9;&#9;c0.2-1.1-8.5-14.2-8.5-14.2S47.7,96.5,44,98.3c-3.7,1.9-9,8-9.2,10C34.6,110.4,34,127.6,37.7,132.1z" style="opacity: 0.15; fill: rgb(18, 16, 11);"/>
	
		<path d="M 27.299999 89.900002 H 53.699999 V 109.600002 H 27.299999 V 89.900002 Z" transform="matrix(0.5423 0.8402 -0.8402 0.5423 102.3319 11.6379)" class="st4" style="fill: rgb(114, 120, 114);"/>
	<path d="M 32.900002 93 H 59.300001 V 99.4 H 32.900002 V 93 Z" transform="matrix(0.5423 0.8402 -0.8402 0.5423 101.8556 5.2819)" class="st11" style="fill: rgb(80, 90, 80);"/>
	<path d="M 16.1 95 H 46.800001 V 116.1 H 16.1 V 95 Z" transform="matrix(0.5423 0.8402 -0.8402 0.5423 103.0984 21.941)" class="st4" style="fill: rgb(114, 120, 114);"/>
	<path class="st4" d="M53,108.8c-0.6,0.4-1.3,0.2-1.7-0.4L37.1,86.2c-0.4-0.6-0.2-1.3,0.4-1.7l7.4-4.8c0.6-0.4,1.3-0.2,1.7,0.4&#10;&#9;&#9;l14.3,22.2c0.4,0.6,0.2,1.3-0.4,1.7L53,108.8z" style="fill: rgb(114, 120, 114);"/>
	<path class="st2" d="M39,131.8c-0.7,0.4-1.6,0.2-2-0.4L10.2,89.9c-0.4-0.7-0.2-1.6,0.4-2l11.9-7.7c0.7-0.4,1.6-0.2,2,0.4l26.8,41.5&#10;&#9;&#9;c0.4,0.7,0.2,1.6-0.4,2L39,131.8z" style="fill: rgb(242, 242, 243);"/>
	<path d="M 40.3 126.300003 A 4.3 4.3 0 0 1 36 130.600003 A 4.3 4.3 0 0 1 31.7 126.300003 A 4.3 4.3 0 0 1 36 122.000003 A 4.3 4.3 0 0 1 40.3 126.300003 Z" class="st3" style="fill: rgb(216, 218, 216);"/>
	<path d="M 48.099998 121.199997 A 2 2 0 0 1 46.099998 123.199997 A 2 2 0 0 1 44.099998 121.199997 A 2 2 0 0 1 46.099998 119.199997 A 2 2 0 0 1 48.099998 121.199997 Z" class="st12" style="fill: rgb(184, 189, 186);"/>
	<path d="M 9.6 93.699997 H 24.5 V 96.299997 H 9.6 V 93.699997 Z" transform="matrix(0.5423 0.8402 -0.8402 0.5423 87.5901 29.1038)" class="st4" style="fill: rgb(114, 120, 114);"/>
	<path d="M 26 99.400002 H 35 V 113.100001 H 26 V 99.400002 Z" transform="matrix(0.5424 0.8401 -0.8401 0.5424 103.1709 22.9859)" class="st4" style="fill: rgb(114, 120, 114);"/>
	<g>
		<path d="M 35.700001 87.300003 H 36.000001 V 91.100003 H 35.700001 V 87.300003 Z" transform="matrix(0.5426 0.84 -0.84 0.5426 91.305 10.6753)" class="st11" style="fill: rgb(80, 90, 80);"/>
		
			<path d="M 36.700001 88.699997 H 37.000001 V 92.499997 H 36.700001 V 88.699997 Z" transform="matrix(0.5424 0.8401 -0.8401 0.5424 92.9956 10.5632)" class="st11" style="fill: rgb(80, 90, 80);"/>
		
			<path d="M 37.599998 90.199997 H 37.899998 V 93.999997 H 37.599998 V 90.199997 Z" transform="matrix(0.5424 0.8401 -0.8401 0.5424 94.6712 10.4769)" class="st11" style="fill: rgb(80, 90, 80);"/>
		
			<path d="M 38.5 91.699997 H 38.8 V 95.499997 H 38.5 V 91.699997 Z" transform="matrix(0.5416 0.8407 -0.8407 0.5416 96.4267 10.4461)" class="st11" style="fill: rgb(80, 90, 80);"/>
		
			<path d="M 39.400002 93.199997 H 39.700002 V 96.999997 H 39.400002 V 93.199997 Z" transform="matrix(0.5409 0.8411 -0.8411 0.5409 98.162 10.3651)" class="st11" style="fill: rgb(80, 90, 80);"/>
		
			<path d="M 40.400002 94.699997 H 40.700002 V 98.499997 H 40.400002 V 94.699997 Z" transform="matrix(0.5404 0.8414 -0.8414 0.5404 99.895 10.2809)" class="st11" style="fill: rgb(80, 90, 80);"/>
		
			<path d="M 41.400002 96.099998 H 41.700002 V 99.899998 H 41.400002 V 96.099998 Z" transform="matrix(0.5418 0.8405 -0.8405 0.5418 101.4221 10.0197)" class="st11" style="fill: rgb(80, 90, 80);"/>
		
			<path d="M 42.299999 97.599998 H 42.599999 V 101.399998 H 42.299999 V 97.599998 Z" transform="matrix(0.5432 0.8396 -0.8396 0.5432 102.9425 9.7927)" class="st11" style="fill: rgb(80, 90, 80);"/>
		
			<path d="M 43.299999 99.099998 H 43.599999 V 102.899998 H 43.299999 V 99.099998 Z" transform="matrix(0.5401 0.8416 -0.8416 0.5401 104.9482 9.8925)" class="st11" style="fill: rgb(80, 90, 80);"/>
		
			<path d="M 44.200001 100.5 H 44.500001 V 104.3 H 44.200001 V 100.5 Z" transform="matrix(0.5391 0.8422 -0.8422 0.5391 106.7351 9.8438)" class="st11" style="fill: rgb(80, 90, 80);"/>
		
			<path d="M 45.200001 102 H 45.500001 V 105.8 H 45.200001 V 102 Z" transform="matrix(0.5436 0.8393 -0.8393 0.5436 107.9084 9.3855)" class="st11" style="fill: rgb(80, 90, 80);"/>
		
			<path d="M 46.099998 103.5 H 46.399998 V 107.3 H 46.099998 V 103.5 Z" transform="matrix(0.5435 0.8394 -0.8394 0.5435 109.5935 9.2699)" class="st11" style="fill: rgb(80, 90, 80);"/>
		
			<path d="M 47.099998 104.900002 H 47.399998 V 108.700001 H 47.099998 V 104.900002 Z" transform="matrix(0.5404 0.8414 -0.8414 0.5404 111.6252 9.382)" class="st11" style="fill: rgb(80, 90, 80);"/>
		
			<path d="M 48 106.400002 H 48.3 V 110.200001 H 48 V 106.400002 Z" transform="matrix(0.5432 0.8396 -0.8396 0.5432 112.9715 9.0427)" class="st11" style="fill: rgb(80, 90, 80);"/>
	</g>
</g>
<g transform="matrix(4.177751541137695, 0, 0, 4.177751541137695, -0.3609806299209595, -227.92034912109375)">
	<g class="st7" style="opacity: 0.15;">
		<path d="M 83.5 102.5 H 90.7 V 109.9 H 83.5 V 102.5 Z" class="st8" style="fill: rgb(18, 16, 11);"/>
		<path d="M 82.900002 133.899994 H 91.300001 V 134.999994 H 82.900002 V 133.899994 Z" class="st8" style="fill: rgb(18, 16, 11);"/>
		<path d="M 81.900002 108.099998 H 92.500002 V 134.199999 H 81.900002 V 108.099998 Z" class="st8" style="fill: rgb(18, 16, 11);"/>
	</g>
	<path d="M 81.099998 100.099998 H 88.299998 V 107.499999 H 81.099998 V 100.099998 Z" class="st2" style="fill: rgb(242, 242, 243);"/>
	<path d="M 80.5 131.5 H 88.9 V 132.6 H 80.5 V 131.5 Z" class="st4" style="fill: rgb(114, 120, 114);"/>
	<path d="M 79.5 105.699997 H 90.1 V 131.799997 H 79.5 V 105.699997 Z" class="st13" style="fill: rgb(233, 78, 80);"/>
	<path d="M 84.199997 105.699997 H 85.299997 V 131.799997 H 84.199997 V 105.699997 Z" class="st2" style="fill: rgb(242, 242, 243);"/>
	<g>
		<path d="M 82.300003 102.199997 H 83.700003 V 103.599997 H 82.300003 V 102.199997 Z" class="st3" style="fill: rgb(216, 218, 216);"/>
		<path d="M 85.699997 102.199997 H 87.099997 V 103.599997 H 85.699997 V 102.199997 Z" class="st3" style="fill: rgb(216, 218, 216);"/>
	</g>
	<g class="st7" style="opacity: 0.15;">
		<g>
			<path d="M 71.400002 88.400002 H 82.000002 V 94.800002 H 71.400002 V 88.400002 Z" transform="matrix(0.8216 -0.57 0.57 0.8216 -38.4934 60.0561)" class="st8" style="fill: rgb(18, 16, 11);"/>
			<path class="st8" d="M79.2,85.9c1.7,2.4-0.5,3.4-2.9,5.1c-2.4,1.7-4.1,3.3-5.8,0.9c-1.7-2.4-1.1-5.7,1.3-7.3&#10;&#9;&#9;&#9;&#9;C74.3,82.9,77.6,83.5,79.2,85.9z" style="fill: rgb(18, 16, 11);"/>
		</g>
		<path class="st8" d="M71.4,84.9l6.6,9.6l0.9-0.6l-6.6-9.6c-0.2,0.1-0.3,0.2-0.5,0.3C71.7,84.7,71.6,84.8,71.4,84.9z" style="fill: rgb(18, 16, 11);"/>
	</g>
	<g>
		<path d="M 69 86 H 79.6 V 92.4 H 69 V 86 Z" transform="matrix(0.8216 -0.57 0.57 0.8216 -37.5549 58.2653)" class="st13" style="fill: rgb(233, 78, 80);"/>
		<path class="st13" d="M76.8,83.5c1.7,2.4-0.5,3.4-2.9,5.1c-2.4,1.7-4.1,3.3-5.8,0.9c-1.7-2.4-1.1-5.7,1.3-7.3&#10;&#9;&#9;&#9;C71.9,80.5,75.2,81.1,76.8,83.5z" style="fill: rgb(233, 78, 80);"/>
	</g>
	<path class="st2" d="M69,82.5l6.6,9.6l0.9-0.6L70,81.9c-0.2,0.1-0.3,0.2-0.5,0.3C69.3,82.3,69.2,82.4,69,82.5z" style="fill: rgb(242, 242, 243);"/>
</g>
<g transform="matrix(4.177751541137695, 0, 0, 4.177751541137695, -0.3609806299209595, -227.92034912109375)">
	
		<path d="M 289.399994 115.400002 H 326.599995 V 152.600002 H 289.399994 V 115.400002 Z" transform="matrix(0.8111 0.5849 -0.5849 0.8111 136.5859 -154.8305)" class="st1" style="opacity: 0.15; fill: rgb(18, 16, 11);"/>
	
		<path d="M 287.899994 114 H 325.099995 V 151.200001 H 287.899994 V 114 Z" transform="matrix(0.8111 0.5849 -0.5849 0.8111 135.4724 -154.2613)" class="st14" style="fill: rgb(255, 255, 255);"/>
	
		<path d="M 292.5 117.699997 H 323.9 V 142.799997 H 292.5 V 117.699997 Z" transform="matrix(0.8111 0.5849 -0.5849 0.8111 134.3985 -155.714)" class="st15" style="fill: rgb(169, 201, 69);"/>
	
		<path d="M 254.5 102.099998 H 291.700001 V 139.299999 H 254.5 V 102.099998 Z" transform="matrix(0.8661 -0.4999 0.4999 0.8661 -23.7774 152.6721)" class="st1" style="opacity: 0.15; fill: rgb(18, 16, 11);"/>
	
		<path d="M 253 100.699997 H 290.200001 V 137.899998 H 253 V 100.699997 Z" transform="matrix(0.8661 -0.4999 0.4999 0.8661 -23.2513 151.7527)" class="st14" style="fill: rgb(255, 255, 255);"/>
	
		<path d="M 254.399994 104.199997 H 285.799994 V 129.299997 H 254.399994 V 104.199997 Z" transform="matrix(0.8661 -0.4999 0.4999 0.8661 -22.1755 150.673)" class="st9" style="fill: rgb(248, 177, 35);"/>
</g>
<g transform="matrix(4.177751541137695, 0, 0, 4.177751541137695, -0.3609806299209595, -227.92034912109375)">
	<g class="st7" style="opacity: 0.15;">
		<path class="st8" d="M243.3,176.3c-0.8,0.9-2.2,1.1-3.1,0.3l-3.2-2.7c-0.9-0.8-1.1-2.2-0.3-3.1l6.2-7.5c0.8-0.9,2.2-1.1,3.1-0.3&#10;&#9;&#9;&#9;l3.2,2.7c0.9,0.8,1.1,2.2,0.3,3.1L243.3,176.3z" style="fill: rgb(18, 16, 11);"/>
		<g>
			<path d="M 215.8000030517578 195.89999389648438 L 212.60000610351562 206.5 L 222.39999389648438 201.39999389648438 Z" class="st8" style="fill: rgb(18, 16, 11);"/>
			<path d="M 213.3000030517578 204 L 212.60000610351562 206.5 L 215.60000610351562 205 Z" class="st8" style="fill: rgb(18, 16, 11);"/>
		</g>
		
			<path d="M 226.5 166.199997 H 235.1 V 202.899998 H 226.5 V 166.199997 Z" transform="matrix(0.7688 0.6395 -0.6395 0.7688 171.4008 -104.9411)" class="st8" style="fill: rgb(18, 16, 11);"/>
		
			<path d="M 229.100006 166.199997 H 232.500006 V 202.899998 H 229.100006 V 166.199997 Z" transform="matrix(0.7687 0.6397 -0.6397 0.7687 171.46 -104.953)" class="st8" style="fill: rgb(18, 16, 11);"/>
		
			<path d="M 238.5 168 H 248 V 171.4 H 238.5 V 168 Z" transform="matrix(0.7687 0.6396 -0.6396 0.7687 164.7693 -116.3091)" class="st8" style="fill: rgb(18, 16, 11);"/>
	</g>
	<path class="st16" d="M240.9,173.9c-0.8,0.9-2.2,1.1-3.1,0.3l-3.2-2.7c-0.9-0.8-1.1-2.2-0.3-3.1l6.2-7.5c0.8-0.9,2.2-1.1,3.1-0.3&#10;&#9;&#9;l3.2,2.7c0.9,0.8,1.1,2.2,0.3,3.1L240.9,173.9z" style="fill: rgb(255, 239, 190);"/>
	<g>
		<path d="M 213.39999389648438 193.5 L 210.1999969482422 204.10000610351562 L 220 199 Z" class="st17" style="fill: rgb(253, 209, 119);"/>
		<path d="M 210.89999389648438 201.60000610351562 L 210.1999969482422 204.10000610351562 L 213.1999969482422 202.60000610351562 Z" class="st18" style="fill: rgb(84, 78, 74);"/>
	</g>
	
		<path d="M 224.100006 163.800003 H 232.700006 V 200.500004 H 224.100006 V 163.800003 Z" transform="matrix(0.7688 0.6394 -0.6394 0.7688 169.2858 -103.9563)" class="st13" style="fill: rgb(233, 78, 80);"/>
	
		<path d="M 226.699997 163.800003 H 230.099997 V 200.500004 H 226.699997 V 163.800003 Z" transform="matrix(0.7687 0.6396 -0.6396 0.7687 169.3581 -103.9708)" class="st19" style="fill: rgb(200, 49, 47);"/>
	
		<path d="M 236.100006 165.600006 H 245.600006 V 169.000006 H 236.100006 V 165.600006 Z" transform="matrix(0.7688 0.6395 -0.6395 0.7688 162.6704 -115.3269)" class="st20" style="fill: rgb(107, 95, 87);"/>
</g>
<g transform="matrix(4.177751541137695, 0, 0, 4.177751541137695, -0.3609806299209595, -227.92034912109375)">
	<g class="st7" style="opacity: 0.15;">
		<path d="M 111.900002 157.100006 L 116.199997 156.300003 L 120 177.199997 L 118.800003 177.399994 L 115.800003 160.300003 L 113.099998 160.800003" class="st8" style="fill: rgb(18, 16, 11);"/>
		
			<path d="M 118.199997 217.899994 H 123.599997 V 219.699994 H 118.199997 V 217.899994 Z" transform="matrix(0.9843 -0.1765 0.1765 0.9843 -36.717 24.779)" class="st8" style="fill: rgb(18, 16, 11);"/>
		
			<path d="M 112.099998 154.899994 H 118.399999 V 218.899994 H 112.099998 V 154.899994 Z" transform="matrix(0.9843 -0.1766 0.1766 0.9843 -31.1889 23.279)" class="st8" style="fill: rgb(18, 16, 11);"/>
		
			<path d="M 107.800003 154.199997 H 114.900003 V 176.399998 H 107.800003 V 154.199997 Z" transform="matrix(0.9843 -0.1765 0.1765 0.9843 -27.4182 22.2413)" class="st8" style="fill: rgb(18, 16, 11);"/>
		
			<path d="M 109.599998 174.5 H 116.699998 V 176.3 H 109.599998 V 174.5 Z" transform="matrix(0.9843 -0.1765 0.1765 0.9843 -29.1663 22.7179)" class="st8" style="fill: rgb(18, 16, 11);"/>
	</g>
	<path d="M 108.900002 154.100006 L 113.300003 153.399994 L 117 174.199997 L 115.900002 174.399994 L 112.900002 157.399994 L 110.199997 157.800003" class="st21" style="fill: rgb(201, 132, 19);"/>
	
		<path d="M 115.300003 215 H 120.700003 V 216.8 H 115.300003 V 215 Z" transform="matrix(0.9843 -0.1765 0.1765 0.9843 -36.2414 24.2119)" class="st22" style="fill: rgb(161, 99, 39);"/>
	
		<path d="M 109.099998 152 H 115.399999 V 216 H 109.099998 V 152 Z" transform="matrix(0.9843 -0.1767 0.1767 0.9843 -30.7388 22.7342)" class="st21" style="fill: rgb(201, 132, 19);"/>
	
		<path d="M 104.800003 151.199997 H 111.900003 V 173.399998 H 104.800003 V 151.199997 Z" transform="matrix(0.9843 -0.1765 0.1765 0.9843 -26.9484 21.6793)" class="st22" style="fill: rgb(161, 99, 39);"/>
	
		<path d="M 106.599998 171.5 H 113.699998 V 173.3 H 106.599998 V 171.5 Z" transform="matrix(0.9843 -0.1765 0.1765 0.9843 -28.6968 22.156)" class="st23" style="fill: rgb(255, 232, 0);"/>
</g>


<path d="M 0 0 H 336 V 235.199997 H 0 V 0 Z" class="st0" style="fill: rgb(31, 37, 70);" transform="matrix(4.177751541137695, 0, 0, 4.177751541137695, -0.3609806299209595, -227.92034912109375)"/><rect id="ee-background" x="0" y="0" width="1400" height="500" style="fill: white; fill-opacity: 0; pointer-events: none;"/><g transform="matrix(2.4810376167297363, 0, 0, 2.4810376167297363, -918.3793741464615, -463.30133056640625)"><g transform="translate(0.000000,629.000000) scale(0.100000,-0.100000)" fill="#f8ece1" stroke="none">
<path d="M4549 3867 c12 -15 11 -17 -8 -17 -11 0 -21 -4 -21 -10 0 -5 4 -10 8 -10 5 0 19 -9 32 -20 20 -17 21 -20 6 -26 -13 -5 -14 -9 -5 -20 9 -11 8 -14 -1 -14 -19 0 9 -30 29 -31 10 0 11 -2 4 -6 -7 -2 -24 4 -38 15 -16 13 -21 22 -13 24 8 3 7 6 -3 10 -11 4 -16 -2 -17 -23 -2 -19 2 -29 11 -29 15 0 77 -29 77 -35 0 -3 -11 -1 -23 4 -43 16 -52 -5 -11 -24 35 -16 36 -19 19 -31 -20 -15 -20 -15 50 -32 39 -10 39 -10 8 -11 -59 -2 -42 -17 39 -35 61 -14 107 -17 187 -14 76 3 96 2 71 -5 -19 -5 -87 -7 -152 -5 -99 3 -115 1 -105 -10 9 -12 36 -13 132 -9 66 3 131 9 145 13 14 4 22 4 19 1 -11 -13 -111 -27 -196 -28 l-85 -2 6 -46 c19 -146 19 -187 -3 -245 -21 -56 -21 -57 -2 -99 20 -46 35 -126 32 -169 -1 -16 2 -28 8 -28 6 0 11 -9 11 -20 0 -18 7 -20 75 -20 41 0 75 2 75 5 0 2 -10 13 -21 24 -18 16 -23 38 -31 118 -5 54 -8 128 -5 164 4 59 8 71 46 118 22 29 41 59 41 66 0 7 3 20 6 29 4 11 1 16 -11 16 -11 0 -15 5 -11 15 4 12 -3 15 -30 15 -19 0 -33 4 -30 8 2 4 23 6 45 4 29 -3 38 -8 34 -18 -3 -9 2 -14 18 -15 13 0 18 -3 12 -6 -7 -2 -13 -11 -13 -18 0 -12 7 -12 42 1 52 18 63 10 14 -10 -20 -8 -36 -17 -36 -20 0 -3 14 -13 31 -22 36 -18 176 -22 207 -5 19 10 20 5 27 -142 10 -221 12 -269 14 -299 1 -28 2 -28 67 -28 69 0 81 13 34 37 -12 6 -27 17 -31 25 -16 24 -9 184 11 283 11 53 20 114 20 134 0 56 12 68 53 53 63 -23 143 -12 188 26 15 12 20 8 41 -30 21 -39 27 -43 63 -43 33 0 43 5 62 34 20 30 23 46 23 132 l0 99 29 0 c39 0 45 12 23 41 -13 15 -29 22 -52 21 -20 0 -39 6 -49 18 -13 15 -95 40 -131 40 -14 0 -12 -26 2 -49 10 -16 8 -29 -12 -73 -52 -117 -107 -126 -197 -33 -29 30 -57 55 -63 55 -5 0 -14 9 -20 20 -6 11 -15 20 -21 20 -9 0 -41 28 -120 102 -50 49 -102 49 -159 2 -28 -24 -36 -26 -88 -20 -175 21 -291 54 -362 105 -20 14 -29 18 -21 8z m71 -58 c17 -13 18 -17 5 -10 -33 17 -51 31 -40 31 6 0 21 -10 35 -21z m36 -57 c-5 -4 -66 26 -66 33 0 3 16 -3 35 -12 19 -9 33 -18 31 -21z m74 16 c10 -6 7 -7 -10 -2 -14 3 -32 11 -40 16 -10 6 -7 7 10 2 14 -3 32 -11 40 -16z m47 -14 c-3 -3 -12 -4 -19 -1 -8 3 -5 6 6 6 11 1 17 -2 13 -5z m-122 -24 c33 -10 51 -19 39 -19 -24 -1 -85 18 -98 30 -14 12 -10 11 59 -11z m65 10 c8 -5 11 -10 5 -10 -5 0 -17 5 -25 10 -8 5 -10 10 -5 10 6 0 17 -5 25 -10z m216 0 c13 0 24 -4 24 -9 0 -10 -47 -5 -110 10 -30 8 -29 8 14 4 27 -3 59 -5 72 -5z m-26 -29 c120 -6 122 -6 50 -11 -67 -5 -238 3 -200 9 11 2 10 5 -5 12 -17 8 -16 8 5 3 14 -4 81 -10 150 -13z m252 7 c27 -16 64 -48 55 -48 -3 0 -22 11 -42 24 -27 18 -45 24 -73 20 -31 -3 -33 -2 -12 5 36 13 48 13 72 -1z m-462 -28 c41 -10 66 -19 55 -19 -23 -1 -124 25 -133 33 -7 8 -8 8 78 -14z m445 -10 c3 -5 12 -10 20 -10 8 0 35 -14 60 -31 l46 -31 -27 -29 c-26 -27 -28 -57 -2 -31 18 18 33 15 18 -3 -20 -25 -2 -31 33 -11 l32 18 -27 -26 c-16 -15 -28 -30 -28 -35 0 -4 -6 -8 -14 -8 -8 0 -12 6 -9 13 2 7 -5 17 -16 24 -12 6 -21 18 -21 26 0 8 -5 12 -10 9 -6 -3 -13 1 -16 10 -5 11 -10 13 -19 5 -9 -7 -16 -6 -25 5 -7 8 -9 15 -5 15 5 0 6 2 3 5 -10 10 -77 -36 -83 -56 -4 -10 -11 -19 -16 -19 -17 0 30 58 51 65 27 9 25 24 -2 19 -21 -4 -21 -4 2 7 21 10 22 13 8 16 -21 5 -23 14 -6 31 9 9 5 12 -17 13 l-30 1 30 8 c44 11 63 11 70 0z m-380 -36 l60 -14 -50 5 c-27 3 -70 12 -95 20 -37 13 -38 14 -10 9 19 -4 62 -13 95 -20z m169 2 c-3 -9 -10 -16 -15 -16 -5 0 -4 9 3 20 14 22 21 20 12 -4z m449 -97 c37 -33 67 -66 67 -74 0 -14 -52 -39 -70 -33 -6 2 1 15 17 28 15 14 21 17 14 7 -17 -22 -9 -33 9 -12 7 8 9 22 6 31 -6 15 -9 15 -34 -2 -24 -15 -25 -15 -13 -1 7 9 10 17 5 17 -5 0 -3 4 5 9 11 7 9 11 -9 21 -20 11 -22 10 -17 -4 8 -21 4 -20 -18 4 -18 20 -18 21 1 15 20 -7 -4 18 -82 83 l-39 33 45 -31 c25 -17 75 -58 113 -91z m-683 66 c52 -14 53 -15 11 -10 -24 3 -51 10 -60 15 -21 12 -16 12 49 -5z m255 -5 c-15 -17 -29 -20 -84 -18 l-66 2 65 3 c43 3 68 9 73 19 4 7 13 14 19 14 6 0 3 -9 -7 -20z m82 14 c-3 -3 -12 -4 -19 -1 -8 3 -5 6 6 6 11 1 17 -2 13 -5z m-16 -33 c-33 -9 -39 -31 -10 -31 18 0 20 -3 11 -12 -9 -9 -18 -8 -37 2 -23 12 -24 15 -8 24 16 9 16 10 -2 17 -14 5 -6 8 25 7 33 0 39 -2 21 -7z m297 -17 c1 -1 -5 -4 -15 -6 -13 -4 -19 0 -19 13 0 14 3 16 16 6 8 -6 16 -12 18 -13z m462 -61 c0 -64 -5 -98 -18 -123 -28 -58 -87 -54 -113 7 -17 38 -16 38 17 91 19 29 34 59 34 67 0 14 44 44 68 45 9 0 12 -24 12 -87z m-971 51 c8 -7 -74 -2 -99 6 -16 5 -2 6 35 3 33 -3 62 -7 64 -9z m311 -24 c-33 -26 -49 -26 -19 0 13 10 29 19 34 19 6 1 -1 -8 -15 -19z m65 -10 c-3 -5 -12 -10 -18 -10 -7 0 -6 4 3 10 19 12 23 12 15 0z m-115 -33 c0 -16 -9 -28 -27 -36 l-28 -12 25 20 c28 22 19 42 -10 23 -11 -7 -25 -12 -32 -12 -13 0 50 38 65 39 4 1 7 -10 7 -22z m70 8 c-7 -8 -16 -12 -21 -9 -5 3 -6 -2 -3 -11 5 -13 13 -12 53 10 l46 25 -35 -30 c-19 -17 -55 -44 -80 -61 l-45 -30 33 29 c17 16 29 32 25 35 -3 4 -15 0 -25 -10 -10 -9 -18 -13 -18 -8 0 4 8 14 18 21 14 11 14 13 2 14 -9 0 -2 9 15 20 36 24 52 26 35 5z m192 -5 c-23 -19 -14 -37 13 -26 25 9 17 -25 -11 -51 -14 -13 -28 -22 -31 -20 -2 3 7 14 21 25 15 11 26 23 26 26 0 11 -21 6 -36 -9 -9 -8 -21 -15 -27 -15 -7 0 -4 5 6 11 9 5 17 17 17 26 0 10 -6 13 -17 9 -10 -4 -4 5 12 18 17 14 35 25 40 25 6 0 0 -8 -13 -19z m-407 -35 c-16 -6 -48 -10 -70 -10 -96 3 -125 5 -125 13 0 4 51 7 113 7 91 0 107 -2 82 -10z m287 -1 c-12 -8 -22 -22 -22 -30 0 -17 4 -17 33 -3 20 9 20 9 5 -4 -31 -25 -22 -39 13 -22 17 9 33 14 36 12 2 -3 -5 -8 -16 -12 -12 -3 -21 -11 -21 -16 0 -6 8 -5 21 1 11 7 23 9 26 6 3 -3 -7 -10 -22 -16 -15 -6 -30 -8 -33 -5 -3 2 -11 0 -19 -6 -10 -9 -13 -7 -14 7 -1 11 -1 23 0 27 1 5 -3 6 -8 3 -5 -4 -11 4 -13 16 -3 22 25 57 47 58 5 0 -1 -7 -13 -16z m63 -14 c-3 -5 -11 -10 -16 -10 -6 0 -7 5 -4 10 3 6 11 10 16 10 6 0 7 -4 4 -10z m-225 -14 c0 -2 -7 -7 -16 -10 -8 -3 -12 -2 -9 4 6 10 25 14 25 6z m87 -24 c-15 -15 -27 -32 -27 -38 0 -5 -19 -10 -43 -11 l-42 -2 39 14 c22 8 51 25 65 39 35 35 42 33 8 -2z m48 -31 c-6 -5 -21 -12 -35 -15 l-25 -7 25 15 c28 17 50 21 35 7z m-401 -179 c-18 -49 -18 -51 3 -99 30 -69 42 -132 35 -176 -6 -35 -9 -37 -25 -25 -37 27 -51 327 -17 348 22 14 23 6 4 -48z"/>
<path d="M5104 3659 c0 -16 5 -19 26 -14 24 6 24 6 5 -9 -26 -18 -11 -34 16 -17 12 7 24 10 27 7 3 -3 0 -6 -6 -6 -6 0 -16 -9 -22 -20 -10 -18 -8 -19 15 -10 21 8 25 7 25 -9 0 -23 30 -18 55 9 21 23 2 38 -23 18 -15 -12 -16 -11 -4 4 11 14 10 17 -7 23 -12 3 -21 11 -21 16 0 5 -8 9 -18 9 -10 0 -22 3 -26 7 -16 16 -42 12 -42 -8z"/>
<path d="M3998 3731 c-205 -66 -312 -240 -286 -462 17 -138 99 -252 225 -312 65 -31 73 -32 188 -32 142 1 196 18 288 90 l58 46 -47 54 -46 55 -42 -35 c-156 -128 -371 -95 -459 70 -30 56 -31 192 -2 250 84 171 304 206 464 74 l34 -28 53 47 53 46 -37 34 c-121 109 -297 150 -444 103z"/>
<path d="M5950 3335 l0 -415 75 0 75 0 0 259 c0 143 4 262 9 265 5 3 87 -113 182 -259 l173 -265 73 0 73 0 0 245 0 245 -75 0 -75 0 0 -101 c0 -88 -2 -100 -15 -89 -8 6 -90 128 -182 271 l-168 259 -72 0 -73 0 0 -415z"/>
<path d="M6460 3675 l0 -75 75 0 75 0 0 75 0 75 -75 0 -75 0 0 -75z"/>
<path d="M6740 3676 l0 -76 146 0 c185 0 225 -10 286 -71 56 -56 72 -104 72 -214 0 -67 -4 -88 -27 -132 -46 -89 -93 -113 -233 -116 l-89 -2 -3 178 -2 177 -75 0 -75 0 0 -251 0 -251 198 3 197 4 67 33 c38 19 80 49 97 69 154 187 125 511 -58 650 -70 54 -124 66 -323 71 l-178 4 0 -76z"/>
<path d="M7530 3675 l0 -75 230 0 231 0 -3 73 -3 72 -227 3 -228 2 0 -75z"/>
<path d="M8110 3675 l0 -75 148 0 c158 0 200 -7 253 -43 69 -47 102 -125 101 -242 0 -77 -10 -111 -49 -167 -38 -56 -90 -77 -203 -80 l-95 -3 -3 178 -2 177 -75 0 -75 0 0 -251 0 -251 198 4 c179 4 202 6 249 27 223 99 281 466 107 678 -76 93 -175 123 -406 123 l-148 0 0 -75z"/>
<path d="M8900 3675 l0 -75 225 0 225 0 0 75 0 75 -225 0 -225 0 0 -75z"/>
<path d="M4681 3467 c0 -15 -6 -36 -13 -46 -9 -14 -8 -27 4 -57 16 -38 16 -38 23 -13 3 14 2 52 -3 85 -5 32 -10 47 -11 31z"/>
<path d="M8900 3180 l0 -260 225 0 225 0 0 70 0 69 -147 3 -148 3 -3 112 -3 112 148 3 148 3 3 73 3 72 -226 0 -225 0 0 -260z"/>
<path d="M7686 3408 c3 -4 2 -84 -2 -178 l-7 -170 -74 0 -73 0 0 -70 0 -70 230 0 230 0 0 70 0 69 -77 3 -78 3 -3 172 -2 171 -74 4 c-41 2 -72 0 -70 -4z"/>
</g></g></svg>